Coordinates
version=1
nRows=10
nColumns=28
inDegrees=yes

Units are S.I. units (second, meters, Newtons, ...)
Angles are in degrees.

endheader
time	pelvis_tilt	pelvis_list	pelvis_rotation	pelvis_tx	pelvis_ty	pelvis_tz	hip_flexion_r	hip_adduction_r	hip_rotation_r	knee_angle_r	ankle_angle_r	subtalar_angle_r	mtp_angle_r	hip_flexion_l	hip_adduction_l	hip_rotation_l	knee_angle_l	socket_flexion	socket_adduction	socket_rotation	socket_tx	socket_ty	socket_tz	foot_flex	lumbar_extension	lumbar_bending	lumbar_rotation
      0.31250000	      2.37504167	     -0.86770951	     -6.28118656	     -0.42516636	      1.03073537	      0.25629149	     13.00295537	      0.94410771	     -1.70189820	    -65.77602013	      7.48356138	    -15.67322133	     -1.93781277	     -1.37184001	     -0.11625818	     -6.56594712	     -6.04989819	     -1.41830383	      1.26882023	     16.17850997	      0.00000000	     -0.00806709	      0.00000000	      0.05243508	    -11.15312667	     -2.29557661	      4.99789043
      0.31666667	      2.34858105	     -1.23096833	     -6.01455240	     -0.41941402	      1.03119023	      0.25593477	     13.41560683	      1.28891638	     -2.03407926	    -65.29226515	      8.44840709	    -15.11770716	     -1.77218401	     -1.80584597	     -0.49813156	     -6.58343635	     -5.83784941	     -1.33086291	      1.31541663	     16.50560174	      0.00000000	     -0.00824517	      0.00000000	      0.33423338	    -11.10207449	     -1.80416890	      4.82597916
      0.32083333	      2.39686488	     -1.24794136	     -5.95519749	     -0.41443770	      1.03169089	      0.25600478	     13.96950556	      1.32009032	     -2.08026290	    -64.97918142	      8.50739369	    -15.06440569	     -1.76586164	     -2.16255693	     -0.49516259	     -6.57456052	     -5.86982724	     -1.42551201	      1.31391265	     16.52799513	      0.00000000	     -0.00791800	      0.00000000	      0.34080001	    -11.21369984	     -1.79298041	      4.80440571
      0.32500000	      2.61703668	     -1.65184607	     -5.65633540	     -0.40867872	      1.03241064	      0.25533648	     14.08059931	      1.55845491	     -2.54673499	    -64.38951897	      9.59921413	    -13.35609429	     -1.87861237	     -2.97762683	     -0.86017023	     -6.47613358	     -5.32550131	     -1.18518168	      1.39546859	     16.74234746	      0.00000000	     -0.00816126	      0.00000000	      0.45461760	    -11.46757476	     -1.19371721	      4.20486631
      0.32916667	      2.65760185	     -1.65623172	     -5.59609759	     -0.40377480	      1.03282916	      0.25541912	     14.62858833	      1.57181244	     -2.59500893	    -64.01352140	      9.67978207	    -13.35372649	     -1.87447622	     -3.31539645	     -0.84690673	     -6.46904068	     -5.36182855	     -1.26375423	      1.39466258	     16.76409416	      0.00000000	     -0.00787036	      0.00000000	      0.49144557	    -11.57777408	     -1.19476379	      4.20151292
      0.33333333	      2.63768503	     -1.88092089	     -5.34705410	     -0.39812304	      1.03328227	      0.25523063	     14.99555779	      1.78171023	     -2.85694835	    -63.32806706	     10.34142951	    -13.11284215	     -1.81981611	     -3.71931338	     -1.09275874	     -6.45274221	     -5.18919648	     -1.21703763	      1.42864959	     17.00661843	      0.00000000	     -0.00772670	      0.00000000	      0.73184561	    -11.50265507	     -0.91007283	      4.14456300
      0.33750000	      2.65783299	     -2.13653443	     -5.16419039	     -0.39269703	      1.03368470	      0.25502451	     15.36680726	      2.00372362	     -3.09171884	    -62.67180296	     10.82362329	    -12.64024391	     -1.82408271	     -4.16626422	     -1.35526209	     -6.45612065	     -4.99341024	     -1.17317249	      1.46148069	     17.16905121	      0.00000000	     -0.00776442	      0.00000000	      0.80982809	    -11.53264193	     -0.56038756	      3.98608900
      0.34166667	      2.87932530	     -2.39816685	     -4.95663260	     -0.38742718	      1.03428761	      0.25468057	     15.53981995	      2.16357716	     -3.40413006	    -62.03033197	     11.38422435	    -11.85031898	     -2.17512734	     -4.90939521	     -1.58289648	     -6.33096709	     -4.52231755	     -0.95840165	      1.54129178	     17.20823168	      0.00000000	     -0.00778689	      0.00000000	      0.90161018	    -11.83635026	     -0.18695676	      3.62417372
      0.34583333	      2.89328736	     -2.44145171	     -4.83935227	     -0.38229183	      1.03463594	      0.25469966	     15.97621133	      2.19795786	     -3.51244179	    -61.38987761	     11.63812110	    -11.81860748	     -2.20017321	     -5.26333766	     -1.62309228	     -6.31090309	     -4.47092827	     -0.97859099	      1.54491395	     17.29026083	      0.00000000	     -0.00748036	      0.00000000	      1.02412310	    -11.87035058	     -0.13550960	      3.61716826
      0.35000000	      2.90044954	     -2.54820770	     -4.68830989	     -0.37704667	      1.03495603	      0.25464480	     16.37659366	      2.28572727	     -3.66261485	    -60.67731209	     11.93968025	    -11.71112932	     -2.21962446	     -5.63067817	     -1.73302352	     -6.30714444	     -4.38515121	     -0.98136960	      1.54778794	     17.40449510	      0.00000000	     -0.00725361	      0.00000000	      1.15176242	    -11.87136617	     -0.00188520	      3.57454410
